#!OML:ASF F:\VICON\USERDATA\INSTALL\Justin_Nancy\Justin_Nancy.ASF
:FULLY-SPECIFIED
:DEGREES
429
root -20.9443 17.5544 22.8815 2.59016 -45.4508 -2.56649
lowerback 5.1906 -1.46716 0.331925
upperback 0.0451924 -1.85962 3.51834
thorax -2.75784 -0.920674 3.58574
lowerneck -15.8671 -3.38911 -8.18179
upperneck 23.2091 -3.72101 3.94088
head 10.2715 -2.03352 2.25479
rclavicle 8.07066e-014 -1.19271e-014
rhumerus -37.8191 -18.8385 -73.456
rradius 26.3045
rwrist 5.61377
rhand -13.5524 12.1949
rfingers 7.12502
rthumb 12.5607 -17.4076
lclavicle 8.07066e-014 -1.19271e-014
lhumerus -28.9409 10.296 84.1977
lradius 29.0011
lwrist -8.10631
lhand -15.741 24.0353
lfingers 7.12502
lthumb 10.45 53.7556
rfemur -12.6592 6.08351 25.5751
rtibia 8.52022
rfoot 5.56622 1.3057
rtoes -3.48136
lfemur -4.93251 -4.11703 -19.5139
ltibia 52.4505
lfoot 25.5029 -11.7252
ltoes 4.15281
430
root -21.0639 17.5449 22.9608 2.74579 -45.7821 -2.89376
lowerback 5.47408 -1.39516 0.273037
upperback -0.0491195 -1.75496 3.65844
thorax -3.01463 -0.864314 3.76949
lowerneck -15.1032 -3.39569 -8.75551
upperneck 22.6409 -3.771 4.48571
head 9.9485 -2.04553 2.53987
rclavicle -3.03147e-014 2.22639e-014
rhumerus -37.408 -17.1982 -74.4055
rradius 26.7981
rwrist 3.80154
rhand -14.157 10.1702
rfingers 7.12502
rthumb 11.9777 -19.4671
lclavicle -3.03147e-014 2.22639e-014
lhumerus -29.4973 10.2288 84.3213
lradius 29.0253
lwrist -8.04015
lhand -16.3168 23.9408
lfingers 7.12502
lthumb 9.89448 53.6883
rfemur -12.4283 6.48173 26.0923
rtibia 9.31422
rfoot 5.05345 1.33945
rtoes -2.76063
lfemur -6.25966 -3.43458 -19.0197
ltibia 54.4971
lfoot 25.7803 -13.4074
ltoes 4.65028
431
root -21.1815 17.5358 23.0373 2.84022 -46.4321 -2.90938
lowerback 5.52955 -1.02222 0.097911
upperback -0.0279585 -1.27002 3.52146
thorax -3.0533 -0.619645 3.689
lowerneck -14.9627 -3.49855 -8.77724
upperneck 22.4787 -4.00826 4.8512
head 9.88862 -2.11483 2.64106
rclavicle -3.52843e-014 -2.22639e-014
rhumerus -37.0829 -16.8762 -74.9606
rradius 27.1623
rwrist 3.12873
rhand -14.1969 10.242
rfingers 7.12502
rthumb 11.9393 -19.3975
lclavicle -3.52843e-014 -2.22639e-014
lhumerus -29.5625 9.35731 84.4159
lradius 28.9994
lwrist -7.71475
lhand -16.1595 23.8221
lfingers 7.12502
lthumb 10.0463 53.5623
rfemur -12.4912 7.19297 26.3144
rtibia 10.2258
rfoot 4.57369 1.30621
rtoes -2.69227
lfemur -7.66964 -2.44469 -18.7937
ltibia 56.4695
lfoot 24.2645 -15.178
ltoes 0.398149
432
root -21.2955 17.5475 23.1176 2.9389 -46.7571 -2.99027
lowerback 5.55824 -0.796729 0.0363183
upperback 0.0442491 -0.975706 3.47071
thorax -3.013 -0.473064 3.64701
lowerneck -15.2279 -3.49023 -8.62038
upperneck 22.6322 -4.00146 4.79322
head 9.98797 -2.10237 2.59443
rclavicle 2.44008e-014 -2.70347e-014
rhumerus -36.4353 -17.7425 -74.7257
rradius 26.6728
rwrist 4.31677
rhand -14.2712 11.2662
rfingers 7.12502
rthumb 11.8676 -18.3775
lclavicle 2.44008e-014 -2.70347e-014
lhumerus -29.5346 9.00119 84.5096
lradius 28.8538
lwrist -7.88407
lhand -15.6874 23.6228
lfingers 7.12502
lthumb 10.5017 53.3404
rfemur -12.5996 7.29562 26.5685
rtibia 11.2684
rfoot 3.90478 1.27978
rtoes -1.6245
lfemur -9.11715 -2.00759 -18.489
ltibia 58.3369
lfoot 22.4958 -14.3651
ltoes 1.49689
433
root -21.4016 17.5568 23.1981 2.83416 -46.8455 -2.92704
lowerback 5.75722 -0.697384 -0.035203
upperback 0.0821377 -0.845692 3.43886
thorax -3.09312 -0.406792 3.64751
lowerneck -15.3295 -3.5085 -8.69599
upperneck 22.6351 -4.00696 4.83675
head 10.0116 -2.10436 2.62098
rclavicle -1.28564e-013 -1.51076e-014
rhumerus -35.8024 -19.0854 -74.1506
rradius 25.9698
rwrist 6.39627
rhand -14.1015 12.052
rfingers 7.12502
rthumb 12.0312 -17.5821
lclavicle -1.28564e-013 -1.51076e-014
lhumerus -29.6008 8.79684 84.6613
lradius 28.6565
lwrist -8.21434
lhand -15.678 23.5717
lfingers 7.12502
lthumb 10.5108 53.2889
rfemur -12.5091 7.24163 26.7004
rtibia 12.1386
rfoot 3.1607 1.22023
rtoes -0.757159
lfemur -10.5572 -1.7651 -18.254
ltibia 60.1371
lfoot 20.7178 -12.6707
ltoes 6.0224
434
root -21.5073 17.5593 23.284 2.67487 -46.9315 -2.86952
lowerback 6.19731 -0.620862 -0.0997881
upperback 0.00665872 -0.739615 3.33973
thorax -3.42554 -0.34909 3.58185
lowerneck -15.5377 -3.54157 -8.38056
upperneck 22.9959 -4.09387 4.67612
head 10.176 -2.13824 2.50056
rclavicle -1.33186e-014 0
rhumerus -35.6838 -18.7197 -74.3329
rradius 26.2877
rwrist 6.63199
rhand -13.0246 12.918
rfingers 7.12502
rthumb 13.0695 -16.6525
lclavicle -1.33186e-014 0
lhumerus -29.9186 8.47099 84.6519
lradius 28.5568
lwrist -8.30018
lhand -15.7439 23.7607
lfingers 7.12502
lthumb 10.4472 53.4811
rfemur -12.1331 7.58077 26.7708
rtibia 12.6932
rfoot 2.5816 0.84612
rtoes 0.330084
lfemur -11.886 -1.41227 -18.0944
ltibia 61.8937
lfoot 18.4448 -11.7391
ltoes 7.4337
435
root -21.6125 17.5558 23.3739 2.48398 -46.9709 -2.81506
lowerback 6.45008 -0.684665 -0.19918
upperback 0.0388524 -0.829348 3.31638
thorax -3.52751 -0.391466 3.62662
lowerneck -15.4844 -3.42163 -8.24515
upperneck 23.2006 -3.94661 4.55666
head 10.2227 -2.0773 2.45795
rclavicle 1.10475e-013 1.19271e-014
rhumerus -35.3801 -17.9335 -74.6363
rradius 26.6461
rwrist 6.67107
rhand -11.7579 14.403
rfingers 7.12502
rthumb 14.2903 -15.0852
lclavicle 1.10475e-013 1.19271e-014
lhumerus -30.3064 8.94143 84.4591
lradius 28.5695
lwrist -8.95167
lhand -15.4144 23.5073
lfingers 7.12502
lthumb 10.765 53.2115
rfemur -11.6152 8.09737 26.7771
rtibia 13.2574
rfoot 1.98307 0.123916
rtoes 2.37248
lfemur -13.0921 -1.09527 -18.0468
ltibia 63.5055
lfoot 15.6453 -11.4599
ltoes 2.47006
436
root -21.714 17.54 23.4584 2.62942 -47.2086 -3.02895
lowerback 6.35287 -0.696721 -0.123808
upperback 0.169291 -0.843962 3.40767
thorax -3.33663 -0.403296 3.67628
lowerneck -15.1729 -3.29332 -8.50645
upperneck 22.9665 -3.72115 4.57694
head 10.0692 -1.99519 2.54026
rclavicle 8.21478e-014 1.35174e-014
rhumerus -34.6706 -18.4006 -74.41
rradius 26.4009
rwrist 8.03691
rhand -11.2609 15.8995
rfingers 7.12502
rthumb 14.7692 -13.5543
lclavicle 8.21478e-014 1.35174e-014
lhumerus -30.5768 9.6684 84.4116
lradius 28.6245
lwrist -9.6285
lhand -15.2572 23.4044
lfingers 7.12502
lthumb 10.9166 53.1006
rfemur -11.3801 8.93838 26.9678
rtibia 14.0179
rfoot 1.32865 -0.838734
rtoes 4.37597
lfemur -14.4733 -0.574682 -17.7646
ltibia 64.9685
lfoot 12.757 -10.8833
ltoes 1.83478
437
root -21.803 17.5229 23.5522 2.95274 -46.9451 -3.76231
lowerback 6.63788 -0.841721 0.56187
upperback 0.218928 -0.979839 3.57371
thorax -3.44514 -0.481863 3.47993
lowerneck -14.852 -3.23918 -8.94055
upperneck 22.7157 -3.59843 4.75466
head 9.92246 -1.95656 2.69254
rclavicle 2.01269e-014 2.70347e-014
rhumerus -34.146 -18.3976 -74.3125
rradius 26.3962
rwrist 8.79126
rhand -11.5782 15.8991
rfingers 7.12502
rthumb 14.4635 -13.5768
lclavicle 2.01269e-014 2.70347e-014
lhumerus -30.8023 9.91859 84.5561
lradius 28.4024
lwrist -9.80219
lhand -15.5091 23.4322
lfingers 7.12502
lthumb 10.6737 53.1411
rfemur -11.1906 9.11115 27.6213
rtibia 15.0013
rfoot 0.588873 -1.48944
rtoes 3.6956
lfemur -15.6929 -0.462402 -17.133
ltibia 66.2089
lfoot 10.326 -9.87361
ltoes -0.524495
438
root -21.8998 17.5134 23.6389 2.86349 -46.9413 -3.90105
lowerback 6.93699 -0.861853 0.692701
upperback 0.261941 -0.990627 3.5706
thorax -3.57006 -0.489076 3.41029
lowerneck -14.4264 -3.30624 -9.30854
upperneck 22.3961 -3.71859 5.1066
head 9.75203 -2.00539 2.86255
rclavicle -4.17945e-014 -2.38542e-015
rhumerus -33.7382 -17.0168 -74.9968
rradius 27.0278
rwrist 7.69691
rhand -12.1771 14.5792
rfingers 7.12502
rthumb 13.8863 -14.9372
lclavicle -4.17945e-014 -2.38542e-015
lhumerus -31.0198 9.51827 84.6923
lradius 28.3026
lwrist -9.45897
lhand -15.6822 23.6216
lfingers 7.12502
lthumb 10.5067 53.339
rfemur -11.1591 9.1216 27.9188
rtibia 15.9796
rfoot -0.0162724 -1.5952
rtoes 0.538439
lfemur -16.7558 -0.105597 -16.9654
ltibia 67.1348
lfoot 8.33291 -9.02115
ltoes -3.19851
439
root -22.0002 17.5048 23.7151 2.68709 -46.9565 -3.76865
lowerback 7.04246 -0.779104 0.577488
upperback 0.380701 -0.892172 3.52245
thorax -3.51026 -0.439704 3.41568
lowerneck -14.3371 -3.59138 -9.37884
upperneck 22.3653 -4.10705 5.09181
head 9.7584 -2.19362 2.81813
rclavicle 1.58034e-014 -2.06736e-014
rhumerus -33.1782 -15.7752 -75.7253
rradius 27.7007
rwrist 5.96992
rhand -12.5056 13.5382
rfingers 7.12502
rthumb 13.5697 -15.9996
lclavicle 1.58034e-014 -2.06736e-014
lhumerus -31.0474 9.52699 84.7951
lradius 28.3295
lwrist -9.42703
lhand -15.1166 23.9308
lfingers 7.12502
lthumb 11.0523 53.6198
rfemur -11.2013 9.21119 28.0019
rtibia 16.9588
rfoot -0.675166 -1.84632
rtoes -1.55654
lfemur -17.894 0.262891 -16.9618
ltibia 67.8754
lfoot 6.53449 -8.27486
ltoes -5.53958
440
root -22.1041 17.4846 23.7874 3.14805 -46.7535 -4.34132
lowerback 7.10773 -0.785661 0.849459
upperback 0.384378 -0.874892 3.65635
thorax -3.54614 -0.435275 3.40165
lowerneck -14.6539 -3.26099 -8.91627
upperneck 22.7921 -3.54126 4.28799
head 9.90109 -1.9849 2.53264
rclavicle 2.01766e-014 6.36111e-015
rhumerus -32.5172 -15.9146 -75.9032
rradius 27.7396
rwrist 5.45329
rhand -12.4119 14.5061
rfingers 7.12502
rthumb 13.6601 -15.0256
lclavicle 2.01766e-014 6.36111e-015
lhumerus -31.2844 9.84338 84.7784
lradius 28.4785
lwrist -9.47695
lhand -14.854 24.264
lfingers 7.12502
lthumb 11.3056 53.9393
rfemur -11.27 9.47483 28.5715
rtibia 18.0154
rfoot -1.48655 -2.5
rtoes -1.41483
lfemur -19.2053 0.56005 -16.3591
ltibia 68.5095
lfoot 4.87909 -7.54217
ltoes -6.90453
441
root -22.2083 17.4596 23.8679 3.50153 -46.6862 -4.85923
lowerback 7.20277 -0.834573 1.08985
upperback 0.387675 -0.916161 3.7548
thorax -3.59614 -0.459588 3.37512
lowerneck -14.772 -3.08071 -8.56145
upperneck 23.0286 -3.27006 3.87032
head 9.97413 -1.87962 2.36247
rclavicle 6.68413e-014 7.15625e-015
rhumerus -31.921 -15.6318 -76.1551
rradius 27.8123
rwrist 5.22698
rhand -12.8415 14.3663
rfingers 7.12502
rthumb 13.246 -15.1928
lclavicle 6.68413e-014 7.15625e-015
lhumerus -31.4405 10.39 84.5679
lradius 28.2021
lwrist -10.0348
lhand -14.5741 24.2217
lfingers 7.12502
lthumb 11.5755 53.882
rfemur -11.1107 10.0304 29.0499
rtibia 18.9342
rfoot -2.34016 -3.33746
rtoes 0.749439
lfemur -20.4024 0.803821 -15.8649
ltibia 69.0223
lfoot 3.70119 -6.65596
ltoes -6.85324
442
root -22.3064 17.444 23.9514 3.29635 -46.846 -4.68307
lowerback 7.23686 -0.752779 0.941179
upperback 0.532572 -0.825585 3.69525
thorax -3.46812 -0.414078 3.38576
lowerneck -14.7684 -3.19601 -8.77536
upperneck 23.0288 -3.41627 4.02301
head 9.99124 -1.94824 2.43292
rclavicle 3.29486e-014 -1.59028e-014
rhumerus -31.2513 -14.6048 -76.7779
rradius 28.4695
rwrist 4.32004
rhand -13.4727 12.0886
rfingers 7.12502
rthumb 12.6375 -17.5091
lclavicle 3.29486e-014 -1.59028e-014
lhumerus -31.3118 10.4738 84.622
lradius 27.7941
lwrist -10.3156
lhand -14.5834 24.0523
lfingers 7.12502
lthumb 11.5665 53.7131
rfemur -10.8602 10.3554 29.0214
rtibia 19.6673
rfoot -3.08115 -3.70819
rtoes 2.02845
lfemur -21.4615 1.04827 -15.9593
ltibia 69.2931
lfoot 2.77546 -5.55889
ltoes -5.72799
